<svg id="Component_130_10" data-name="Component 130 – 10" xmlns="http://www.w3.org/2000/svg" xmlns:xlink="http://www.w3.org/1999/xlink" width="68" height="41" viewBox="0 0 68 41">
  <defs>
    <filter id="_Container_l_Color" x="37.5" y="4.5" width="23" height="36" filterUnits="userSpaceOnUse">
      <feOffset dy="2" input="SourceAlpha"/>
      <feGaussianBlur stdDeviation="2.5" result="blur"/>
      <feFlood flood-color="#0f1215" flood-opacity="0.102"/>
      <feComposite operator="in" in2="blur"/>
      <feComposite in="SourceGraphic"/>
    </filter>
  </defs>
  <rect id="_Container_l_Color-2" data-name="🔲🎨 Container l Color" width="68" height="41" rx="15" fill="#07090a"/>
  <rect id="_Container_l_Color-3" data-name="🔲🎨 Container l Color" width="58" height="31" rx="10" transform="translate(5 5)" fill="#0f1215"/>
  <g id="night-mode" transform="translate(10 10)" opacity="0.5">
    <path id="Path_39772" data-name="Path 39772" d="M331.615,2.5a.615.615,0,1,0,0,1.23,1.848,1.848,0,0,1,1.846,1.846.615.615,0,0,0,1.23,0,1.848,1.848,0,0,1,1.846-1.846.615.615,0,1,0,0-1.23A1.883,1.883,0,0,1,334.691.615a.615.615,0,0,0-1.23,0A1.883,1.883,0,0,1,331.615,2.5Z" transform="translate(-317.424)" fill="#fff"/>
    <path id="Path_39773" data-name="Path 39773" d="M181,95.307a.615.615,0,0,0,.615.615A3.08,3.08,0,0,1,184.691,99a.615.615,0,1,0,1.23,0A3.08,3.08,0,0,1,189,95.922a.615.615,0,1,0,0-1.23,3.08,3.08,0,0,1-3.076-3.076.615.615,0,1,0-1.23,0,3.08,3.08,0,0,1-3.076,3.076A.615.615,0,0,0,181,95.307Z" transform="translate(-173.576 -87.268)" fill="#fff"/>
    <path id="Path_39774" data-name="Path 39774" d="M10.5,21a10.669,10.669,0,0,0,10.494-9.077.615.615,0,0,0-1.122-.424,7.626,7.626,0,0,1-6.3,3.307A7.391,7.391,0,0,1,6.193,7.424,7.627,7.627,0,0,1,9.5,1.128.615.615,0,0,0,9.077.005,10.67,10.67,0,0,0,0,10.5,10.541,10.541,0,0,0,10.5,21Z" transform="translate(0 0)" fill="#fff"/>
  </g>
  <g transform="matrix(1, 0, 0, 1, 0, 0)" filter="url(#_Container_l_Color)">
    <rect id="_Container_l_Color-4" data-name="🔲🎨 Container l Color" width="8" height="21" rx="4" transform="translate(45 10)" fill="#ff7900"/>
  </g>
  <g id="solid-black-sun-symbol" transform="translate(10 10)" opacity="0">
    <g id="_x37__7_">
      <g id="Group_15599" data-name="Group 15599">
        <path id="Path_39771" data-name="Path 39771" d="M4.468,5.4A.656.656,0,0,0,5.4,4.468L4,3.075A.656.656,0,0,0,3.076,4Zm.4,9.823L3.484,16.6a.65.65,0,0,0,.919.919l1.379-1.379a.65.65,0,1,0-.919-.919ZM10.5,3.281a.656.656,0,0,0,.656-.656V.656a.656.656,0,1,0-1.313,0V2.625A.656.656,0,0,0,10.5,3.281Zm6.314,1.824,1.379-1.379a.65.65,0,0,0-.919-.919L15.894,4.186a.65.65,0,0,0,.919.919ZM2.625,9.844H.656a.656.656,0,1,0,0,1.313H2.625a.656.656,0,0,0,0-1.313ZM10.5,17.719a.656.656,0,0,0-.656.656v1.969a.656.656,0,1,0,1.313,0V18.375A.656.656,0,0,0,10.5,17.719Zm9.844-7.875H18.375a.656.656,0,0,0,0,1.313h1.969a.656.656,0,1,0,0-1.313ZM16.532,15.6a.656.656,0,1,0-.928.928L17,17.924A.656.656,0,0,0,17.924,17ZM10.5,4.59a5.91,5.91,0,1,0,5.91,5.91A5.91,5.91,0,0,0,10.5,4.59Z" fill="#ff7900"/>
      </g>
    </g>
  </g>
</svg>
