<svg xmlns="http://www.w3.org/2000/svg" viewBox="0 0 97.26 54.56"><defs><style>.cls-1,.cls-3{fill:#9b5923;}.cls-2{fill:#ffab66;}.cls-3{opacity:0.2;}.cls-4{fill:#ff7900;}</style></defs><g id="Layer_2" data-name="Layer 2"><g id="Layer_1-2" data-name="Layer 1"><polygon class="cls-1" points="39.82 34.92 19.91 54.56 0 34.92 0 19.64 19.91 0 39.82 19.64 39.82 34.92"/><rect class="cls-2" y="19.64" width="39.81" height="15.28"/><polygon class="cls-3" points="38.45 33.68 39.82 34.92 36.94 34.92 20.14 19.64 23.02 19.64 38.45 33.68"/><polygon class="cls-3" points="18.3 33.68 19.67 34.92 16.8 34.92 0 19.64 2.87 19.64 18.3 33.68"/><polygon class="cls-4" points="0 19.64 28.77 45.82 19.91 54.56 0 34.92 0 19.64"/><polygon class="cls-4" points="39.81 19.64 39.81 34.92 38.45 33.68 23.02 19.64 11.05 8.75 11.05 8.75 19.91 0 39.81 19.64"/><path class="cls-1" d="M49.5,16.69H60.75a.32.32,0,0,1,.36.36v1.68a.64.64,0,0,1,0,.24.5.5,0,0,1-.08.15L53.13,29h7.58a.32.32,0,0,1,.36.36v2.05c0,.23-.12.34-.36.34H49.4c-.24,0-.37-.11-.37-.34V29.63a.55.55,0,0,1,.13-.36L57,19.46H49.5c-.26,0-.38-.12-.38-.36V17.05C49.12,16.81,49.24,16.69,49.5,16.69Z"/><path class="cls-1" d="M65.73,17.13v8.66A3.91,3.91,0,0,0,66,27.12a3.47,3.47,0,0,0,.66,1.1,3.43,3.43,0,0,0,1,.74,3.17,3.17,0,0,0,1.31.27,3.09,3.09,0,0,0,1.3-.27,3.26,3.26,0,0,0,1-.74,3.47,3.47,0,0,0,.66-1.1,3.68,3.68,0,0,0,.23-1.33V17.13a.46.46,0,0,1,.13-.31.45.45,0,0,1,.34-.13h2a.56.56,0,0,1,.34.12.38.38,0,0,1,.16.32v8.66a5.89,5.89,0,0,1-.49,2.4,6.16,6.16,0,0,1-1.32,2,6.4,6.4,0,0,1-2,1.33A6.05,6.05,0,0,1,69,32a6.14,6.14,0,0,1-2.41-.48,6.44,6.44,0,0,1-2-1.33,6.16,6.16,0,0,1-1.32-2,5.89,5.89,0,0,1-.49-2.4V17.13a.46.46,0,0,1,.12-.3.41.41,0,0,1,.31-.14h2.08a.47.47,0,0,1,.32.13A.4.4,0,0,1,65.73,17.13Z"/><path class="cls-1" d="M78.21,17.13a.49.49,0,0,1,.11-.31.42.42,0,0,1,.34-.13H81a.82.82,0,0,1,.33.07.44.44,0,0,1,.25.23l6.67,9.59V17a.37.37,0,0,1,.19-.24.65.65,0,0,1,.26-.06h2a.56.56,0,0,1,.33.12.38.38,0,0,1,.16.32V31.28c0,.29-.16.44-.49.44h-2a.58.58,0,0,1-.36-.09l-.23-.23-7-10.13v10c0,.29-.14.44-.45.44h-2a.39.39,0,0,1-.45-.44Z"/><path class="cls-1" d="M94.28,31.32V17.11c0-.28.13-.42.4-.42h2.19q.39,0,.39.42V31.32a.35.35,0,0,1-.39.4H94.68A.35.35,0,0,1,94.28,31.32Z"/><path class="cls-4" d="M49.28,36.65a.24.24,0,0,1,.06-.17.26.26,0,0,1,.19-.08h1.12a.22.22,0,0,1,.24.25v6.43h3.22a.23.23,0,0,1,.17.07.25.25,0,0,1,.07.18v1q0,.22-.24.24H49.52a.21.21,0,0,1-.24-.24Z"/><path class="cls-4" d="M55.59,44.36V36.65c0-.16.07-.23.22-.23H57c.14,0,.21.07.21.23v7.71a.19.19,0,0,1-.21.22H55.81A.2.2,0,0,1,55.59,44.36Z"/><path class="cls-4" d="M59,44.36V36.64c0-.15.07-.22.21-.22h5.27a.2.2,0,0,1,.22.22V37.7a.2.2,0,0,1-.22.22H60.6v2.16h2.95c.14,0,.21.07.21.22v1c0,.15-.07.22-.21.22H60.6v2.83a.2.2,0,0,1-.22.22H59.2A.19.19,0,0,1,59,44.36Z"/><path class="cls-4" d="M65.89,44.36V36.64c0-.15.07-.22.21-.22h5.37a.19.19,0,0,1,.22.22V37.7a.19.19,0,0,1-.22.22h-4v1.66h3c.16,0,.24.08.24.22v1.05c0,.15-.08.22-.24.22h-3v2h4.08c.16,0,.23.07.23.22v1.06c0,.14-.07.22-.23.22H66.1A.19.19,0,0,1,65.89,44.36Z"/></g></g></svg>